# xmcd
#
# Track frame offsets: 
#        150
#        19558
#        38196
#        63764
#        75923
#        94326
#        107484
#        122316
#        152310
#        172136
#        190925
#
# Disc length: 2916 seconds
#
# Revision: 0
# Processed by: cddbd v1.5.2PL0 Copyright (c) Steve Scherf et al.
# Submitted via: ExactAudioCopy v1.0b1
#
DISCID=740b620b
DTITLE=Julian Paul Band - Black Heart Hotel
DYEAR=2013
DGENRE=Blues Rock
TTITLE0=Black Heart Hotel
TTITLE1=What Kind Of Love Is This
TTITLE2=She Likes Drinking Gasoline
TTITLE3=I Want You Girl
TTITLE4=The Letter
TTITLE5=Travel The Soul
TTITLE6=Empty Tank
TTITLE7=In Time - Trickle Rain
TTITLE8=Diamonds For Blood
TTITLE9=Behind The Words
TTITLE10=A Secret
EXTD=
EXTT0=
EXTT1=
EXTT2=
EXTT3=
EXTT4=
EXTT5=
EXTT6=
EXTT7=
EXTT8=
EXTT9=
EXTT10=
PLAYORDER=
